<svg xmlns="http://www.w3.org/2000/svg" xmlns:xlink="http://www.w3.org/1999/xlink" width="500" zoomAndPan="magnify" viewBox="0 0 375 374.999991" height="500" preserveAspectRatio="xMidYMid meet" version="1.0"><defs><clipPath id="df7c9a1696"><path d="M 114 136.78125 L 261 136.78125 L 261 156 L 114 156 Z M 114 136.78125 " clip-rule="nonzero"/></clipPath></defs><rect x="-37.5" width="450" fill="#ffffff" y="-37.499999" height="449.999989" fill-opacity="1"/><rect x="-37.5" width="450" fill="#ffffff" y="-37.499999" height="449.999989" fill-opacity="1"/><g clip-path="url(#df7c9a1696)"><path fill="#000000" d="M 251.789062 136.824219 L 123.210938 136.824219 C 118.148438 136.824219 114.027344 140.9375 114.027344 145.992188 C 114.027344 151.046875 118.148438 155.160156 123.210938 155.160156 L 251.789062 155.160156 C 256.851562 155.160156 260.972656 151.046875 260.972656 145.992188 C 260.972656 140.9375 256.851562 136.824219 251.789062 136.824219 Z M 251.789062 136.824219 " fill-opacity="1" fill-rule="nonzero"/></g><path fill="#000000" d="M 251.789062 178.238281 L 123.210938 178.238281 C 118.148438 178.238281 114.027344 182.351562 114.027344 187.40625 C 114.027344 192.460938 118.148438 196.574219 123.210938 196.574219 L 251.789062 196.574219 C 256.851562 196.574219 260.972656 192.460938 260.972656 187.40625 C 260.972656 182.351562 256.851562 178.238281 251.789062 178.238281 Z M 251.789062 178.238281 " fill-opacity="1" fill-rule="nonzero"/><path fill="#000000" d="M 251.789062 219.652344 L 123.210938 219.652344 C 118.148438 219.652344 114.027344 223.765625 114.027344 228.820312 C 114.027344 233.875 118.148438 237.988281 123.210938 237.988281 L 251.789062 237.988281 C 256.851562 237.988281 260.972656 233.875 260.972656 228.820312 C 260.972656 223.765625 256.851562 219.652344 251.789062 219.652344 Z M 251.789062 219.652344 " fill-opacity="1" fill-rule="nonzero"/></svg>